HIERARCHY
ROOT Hips
{
	OFFSET 0.00000 0.00000 0.00000
	CHANNELS 6 Xposition Yposition Zposition Zrotation Yrotation Xrotation 
	JOINT LHipJoint
	{
		OFFSET 0 0 0
		CHANNELS 3 Zrotation Yrotation Xrotation
		JOINT LeftHip
		{
			OFFSET 1.26600 -1.82114 0.91038
			CHANNELS 3 Zrotation Yrotation Xrotation
			JOINT LeftKnee
			{
				OFFSET 2.50076 -6.87080 0.00000
				CHANNELS 3 Zrotation Yrotation Xrotation
				JOINT LeftAnkle
				{
					OFFSET 2.57364 -7.07102 0.00000
					CHANNELS 3 Zrotation Yrotation Xrotation
					JOINT LeftToe
					{
						OFFSET 0.13572 -0.37290 1.97004
						CHANNELS 3 Zrotation Yrotation Xrotation
						End Site
						{
							OFFSET 0.00000 -0.00000 1.01383
						}
					}
				}
			}
		}
	}
	JOINT RHipJoint
	{
		OFFSET 0 0 0
		CHANNELS 3 Zrotation Yrotation Xrotation
		JOINT RightHip
		{
			OFFSET -1.20803 -1.82114 0.91038
			CHANNELS 3 Zrotation Yrotation Xrotation
			JOINT RightKnee
			{
				OFFSET -2.54916 -7.00377 0.00000
				CHANNELS 3 Zrotation Yrotation Xrotation
				JOINT RightAnkle
				{
					OFFSET -2.56374 -7.04382 0.00000
					CHANNELS 3 Zrotation Yrotation Xrotation
					JOINT RightToe
					{
						OFFSET -0.23520 -0.64621 2.09921
						CHANNELS 3 Zrotation Yrotation Xrotation
						End Site
						{
							OFFSET -0.00000 -0.00000 1.10065
						}
					}
				}
			}
		}
	}
	JOINT lowerback
	{
		OFFSET 0 0 0
		CHANNELS 3 Zrotation Yrotation Xrotation
		JOINT Chest
		{
			OFFSET 0.05492 2.10797 -0.12074
			CHANNELS 3 Zrotation Yrotation Xrotation
			JOINT Chest2
			{
				OFFSET 0.04577 2.11592 -0.04483
				CHANNELS 3 Zrotation Yrotation Xrotation
				JOINT lowerneck
				{
					OFFSET 0 0 0
					CHANNELS 3 Zrotation Yrotation Xrotation
					JOINT Neck
					{
						OFFSET -0.10759 1.80167 0.15770
						CHANNELS 3 Zrotation Yrotation Xrotation
						JOINT Head
						{
							OFFSET 0.09237 1.77509 -0.40848
							CHANNELS 3 Zrotation Yrotation Xrotation
							End Site
							{
								OFFSET 0.03805 1.84093 -0.15754
							}
						}
					}
				}
				JOINT LeftCollar
				{
					OFFSET 0 0 0
					CHANNELS 3 Zrotation Yrotation Xrotation
					JOINT LeftShoulder
					{
						OFFSET 3.42372 1.09575 -0.28209
CHANNELS 3 Zrotation Xrotation Yrotation
						JOINT LeftElbow
						{
OFFSET 0 -4.956810 0.000000
CHANNELS 3 Zrotation Xrotation Yrotation
							JOINT LeftWrist
							{
OFFSET 0 -3.409150 0.000000
CHANNELS 3 Zrotation Xrotation Yrotation
								JOINT lhand
								{
									OFFSET 0 0 0
CHANNELS 3 Zrotation Xrotation Yrotation
									JOINT LFingers
									{
OFFSET 0 -0.616400 0.000000
CHANNELS 3 Zrotation Xrotation Yrotation
										End Site
										{
OFFSET 0 -0.496960 0.000000
										}
									}
								}
								JOINT LThumb
								{
OFFSET 0 0.000000 0.000000
CHANNELS 3 Zrotation Xrotation Yrotation
									End Site
									{
OFFSET 0 -0.504550 0.504550
									}
								}
							}
						}
					}
				}
				JOINT RightCollar
				{
					OFFSET 0 0 0
					CHANNELS 3 Zrotation Yrotation Xrotation
					JOINT RightShoulder
					{
						OFFSET -3.24731 1.15872 -0.32221
CHANNELS 3 Zrotation Xrotation Yrotation
						JOINT RightElbow
						{
OFFSET 0 -5.352000 0.000000
CHANNELS 3 Zrotation Xrotation Yrotation
							JOINT RightWrist
							{
OFFSET 0 -3.437210 -0.000000
CHANNELS 3 Zrotation Xrotation Yrotation
								JOINT rhand
								{
									OFFSET 0 0 0
CHANNELS 3 Zrotation Xrotation Yrotation
									JOINT RFingers
									{
OFFSET 0 -0.720090 0.000000
CHANNELS 3 Zrotation Xrotation Yrotation
										End Site
										{
OFFSET 0 -0.580560 0.000000
										}
									}
								}
								JOINT RThumb
								{
OFFSET 0 0.000000 0.000000
CHANNELS 3 Zrotation Xrotation Yrotation
									End Site
									{
OFFSET 0 -0.589420 0.589420
									}
								}
							}
						}
					}
				}
			}
		}
	}
}
MOTION
Frames: 6
Frame Time: 0.008333333333333333
19.825492 20.132032 -11.878358 -5.546531 5.623605 0.158494 0.000000 0.000000 0.000000 -16.567709 -11.041915 -15.411263 5.170611 13.573377 41.554722 0.118669 -19.301908 -14.579137 0.734704 5.474661 15.267857 0.000000 0.000000 0.000000 26.520827 -5.529439 -7.423611 -4.676832 -13.010280 39.407211 -2.109014 3.168125 -26.672700 -0.009964 0.637821 -1.752660 3.756805 2.780023 7.016239 2.073536 3.985484 2.600045 -0.276197 1.997866 -1.133248 -10.398691 -3.639994 -12.331210 5.284066 -4.216199 37.012542 3.419661 -2.468489 15.424181 0.000000 0.000000 0.000000 4.274977 8.896272 -16.245035 20.342322 -31.052579 5.706903 21.256231 -0.193033 -15.362943 0.000000 0.000000 0.000000 -7.125000 0.000000 0.000000 -6.035647 46.316118 0.198727 0.000000 0.000000 0.000000 -4.366693 2.331243 29.067482 -24.949931 -36.152077 -8.260676 -24.987703 -16.297963 -12.854845 0.000000 0.000000 0.000000 7.125000 0.000000 0.000000 1.595319 15.852170 1.099287
19.819760 20.067782 -11.644276 -4.900622 8.224152 -0.175062 0.000000 0.000000 0.000000 -17.495563 -11.858712 -14.246667 5.237992 13.646895 41.840985 0.046965 -20.850527 -15.052668 0.773268 5.614729 15.670490 0.000000 0.000000 0.000000 25.909335 -7.843877 -8.516679 -5.291703 -13.704911 42.067998 -2.150263 2.367412 -27.119607 -0.040951 1.305766 -3.590487 2.601886 3.044684 7.092174 1.510060 4.259278 2.453808 -0.244659 2.129152 -1.360301 -11.216321 -4.052945 -11.729050 5.975803 -4.877053 36.807035 3.754005 -2.763442 15.313011 0.000000 0.000000 0.000000 5.023722 9.933017 -13.544951 19.622466 -30.184762 5.340215 25.729393 0.004748 -19.290959 0.000000 0.000000 0.000000 -7.125000 0.000000 0.000000 -2.586882 51.197826 0.386928 0.000000 0.000000 0.000000 -4.047295 2.441607 27.459010 -25.419946 -36.630146 -8.539173 -22.931406 -18.172517 -11.849482 0.000000 0.000000 0.000000 7.125000 0.000000 0.000000 2.964542 17.156525 1.960508
19.811325 20.057360 -11.403733 -5.627193 10.487809 -0.291553 0.000000 0.000000 0.000000 -16.930701 -13.204105 -13.017611 5.206683 13.612816 41.708126 0.077160 -21.422817 -15.679082 0.796059 5.694940 15.901830 0.000000 0.000000 0.000000 26.857057 -9.156767 -8.736869 -5.610216 -14.039560 43.396399 -1.987949 1.695799 -26.206357 -0.086434 1.889416 -5.200350 2.734444 3.776953 6.651893 1.352484 5.220129 2.588743 -0.511585 2.617190 -0.929511 -11.879011 -4.730538 -10.893274 6.381927 -5.886665 36.496768 3.878937 -3.219650 15.143212 0.000000 0.000000 0.000000 5.671406 9.513355 -7.861614 17.707783 -27.781195 4.412245 23.950813 1.612587 -17.514440 0.000000 0.000000 0.000000 -7.125000 0.000000 0.000000 -3.944275 48.990382 0.387435 0.000000 0.000000 0.000000 -3.943932 2.357986 25.395668 -25.012210 -36.216450 -8.297118 -21.766682 -18.094318 -10.916342 0.000000 0.000000 0.000000 7.125000 0.000000 0.000000 3.745641 18.262419 2.388302
19.837076 20.155631 -11.175816 -5.209833 11.691102 0.357021 0.000000 0.000000 0.000000 -17.816792 -14.765048 -11.047525 4.736053 13.080190 39.669448 0.253130 -19.845993 -15.996264 0.499348 4.529508 12.571397 0.000000 0.000000 0.000000 25.781495 -8.457081 -12.422456 -7.332924 -15.604078 50.119236 -1.197061 1.465955 -20.240160 -0.331093 3.684929 -10.193269 2.314122 4.740045 6.198045 0.851710 6.452583 2.636073 -0.827097 3.237609 -0.583541 -13.123009 -5.239529 -9.427471 7.518668 -6.837902 35.864936 4.430325 -3.650219 14.743512 0.000000 0.000000 0.000000 5.902999 10.159341 -4.700706 17.656341 -27.714896 4.388308 21.789388 -0.034612 -16.710578 0.000000 0.000000 0.000000 -7.125000 0.000000 0.000000 -5.836946 47.810543 0.405564 0.000000 0.000000 0.000000 -4.265631 2.360408 24.270270 -24.717980 -35.914246 -8.123982 -21.882300 -17.945518 -11.823511 0.000000 0.000000 0.000000 7.125000 0.000000 0.000000 3.695731 17.283688 2.436193
19.868283 20.260443 -11.003414 -3.961955 11.443235 0.645830 0.000000 0.000000 0.000000 -19.553113 -14.123042 -8.686151 3.996128 12.154962 36.282843 0.202454 -19.351498 -15.290980 0.556344 4.775014 13.268520 0.000000 0.000000 0.000000 22.525541 -6.329549 -21.639072 -11.831868 -18.315663 65.451520 -0.256752 0.419632 -9.430872 -0.002134 0.296297 -0.814214 1.531119 5.512034 8.024766 -0.218820 7.442930 2.469365 -1.753677 3.715313 -1.688643 -12.640189 -5.694729 -8.905195 7.604933 -7.686441 35.423583 4.235939 -3.938029 14.512856 0.000000 0.000000 0.000000 6.429338 12.338795 -3.238062 18.494035 -28.785091 4.784783 22.676938 -0.785193 -17.088196 0.000000 0.000000 0.000000 -7.125000 0.000000 0.000000 -5.077006 48.340528 0.419419 0.000000 0.000000 0.000000 -4.313748 2.136506 23.153606 -24.888151 -36.089351 -8.223981 -22.763463 -17.738189 -15.197512 0.000000 0.000000 0.000000 7.125000 0.000000 0.000000 3.258239 13.584616 2.405768
19.863954 20.363953 -10.810040 -2.579188 12.476913 -0.063018 0.000000 0.000000 0.000000 -21.085208 -12.662511 -5.203879 3.164032 10.955947 32.131368 -0.185621 -20.484952 -12.870471 0.793292 5.685223 15.873714 0.000000 0.000000 0.000000 18.876320 -5.833292 -34.511930 -18.192869 -19.921428 84.709484 -0.411325 -0.686318 -12.382737 -0.013349 -0.746766 2.052209 0.213375 5.285575 10.228478 -0.822936 7.013813 3.261043 -1.794740 3.499543 -2.174304 -12.411752 -5.899764 -9.839702 7.534613 -7.902584 35.211359 4.104060 -3.989515 14.639965 0.000000 0.000000 0.000000 6.094385 13.445573 -0.223576 18.419742 -28.691279 4.749068 22.752227 0.015943 -17.399258 0.000000 0.000000 0.000000 -7.125000 0.000000 0.000000 -5.077178 48.681662 0.462189 0.000000 0.000000 0.000000 -4.890750 0.711596 21.630824 -25.291769 -36.500670 -8.462800 -23.260854 -15.406731 -11.782276 0.000000 0.000000 0.000000 7.125000 0.000000 0.000000 2.731498 17.197094 1.803861
